<?xml version="1.0" encoding="utf-8"?>
<!-- Generator: Adobe Illustrator 19.2.1, SVG Export Plug-In . SVG Version: 6.00 Build 0)  -->
<svg version="1.1" id="layer" xmlns="http://www.w3.org/2000/svg" xmlns:xlink="http://www.w3.org/1999/xlink" x="0px" y="0px"
	 viewBox="0 0 652 652" style="enable-background:new 0 0 652 652;" xml:space="preserve">
<style type="text/css">
	.st0{fill:#291A41;stroke:#291A41;stroke-width:1.8228;}
	.st1{fill:none;stroke:#291A41;stroke-width:11.4577;}
	.st2{fill:#291A41;}
</style>
<path class="st0" d="M580,291c-0.8,0-1.2,0.4-2,0.8c-0.5,0.6-0.8,1.3-0.8,2.1V355c0,0.8,0.4,1.2,0.8,2.1c0.4,0.4,1.2,0.8,2,0.8
	c0.8,0,1.2-0.4,2-0.8c0.5-0.6,0.8-1.3,0.8-2.1v-27.8h15.6l14.3,29.5c0.4,0.8,1.2,1.7,2.5,1.7c0.4,0,0.8,0,1.2-0.4
	c0.8-0.4,1.2-0.8,1.2-1.7c0.4-0.8,0-1.2,0-2.1l-13.1-27c4.5-0.8,8.6-2.9,11.5-6.2c3.3-3.3,4.5-7.1,4.5-11.6c0-5-2-9.1-5.7-12.9
	c-3.7-3.3-8.2-5.4-13.5-5.4C601.3,291,580,291,580,291z M610.7,317.6c-2.5,2.5-5.7,3.7-9.4,3.7h-18.4v-24.9h18c3.7,0,7,1.2,9.8,3.7
	c2.9,2.5,4.1,5.4,4.1,8.7C614.8,312.2,613.2,315.1,610.7,317.6z M552.2,357.9c0.8,0,1.2-0.4,2-0.8c0.5-0.6,0.8-1.3,0.8-2.1
	c0-0.8-0.4-1.2-0.8-2.1c-0.6-0.5-1.3-0.8-2-0.8h-34v-24.9h25.4c0.8,0,1.2-0.4,2-0.8c0.5-0.6,0.8-1.3,0.8-2.1c0-0.8-0.4-1.2-0.8-2.1
	c-0.6-0.5-1.3-0.8-2-0.8h-25.4v-24.9h34c0.8,0,1.2-0.4,2-0.8c0.5-0.6,0.8-1.3,0.8-2.1c0-0.8-0.4-1.2-0.8-2.1c-0.6-0.5-1.3-0.8-2-0.8
	h-36.8c-0.8,0-1.2,0.4-2,0.8c-0.5,0.6-0.8,1.3-0.8,2.1V355c0,0.8,0.4,1.2,0.8,2.1c0.4,0.4,1.2,0.8,2,0.8L552.2,357.9L552.2,357.9z
	 M450.3,356.7c0.5-0.6,0.8-1.3,0.8-2.1v-17.9l8.2-8.7l27.4,29.1c0.4,0.4,1.2,0.8,2,0.8s1.2-0.4,2-0.8c0.5-0.6,0.8-1.3,0.8-2.1
	c0-0.8-0.4-1.2-0.8-2.1l-27.4-29.5l26.6-27.8c0.5-0.6,0.8-1.3,0.8-2.1c0-0.8-0.4-1.2-0.8-2.1c-0.6-0.5-1.3-0.8-2.1-0.8
	c-0.8,0-1.2,0.4-2,0.8l-34.8,37.4v-35.3c0-0.8-0.4-1.2-0.8-2.1c-0.6-0.5-1.3-0.8-2-0.8c-0.8,0-1.2,0.4-2,0.8c0,0.8-0.4,1.2-0.4,2.1
	v61.1c0,0.8,0.4,1.2,0.8,2.1c0.4,0.4,1.2,0.8,2,0.8C449,357.5,449.9,357.1,450.3,356.7L450.3,356.7z M372.5,357.9
	c1.2,0,2-0.4,2.5-1.7l5.7-14.1h33.6l5.7,14.1c0.4,1.2,1.2,1.7,2.5,1.7c0.4,0,0.8,0,1.2-0.4c0.7-0.3,1.3-0.9,1.6-1.7
	c0.4-0.8,0.4-1.2,0-2.1l-6.5-15.8l-18.8-45.7c0,0,0-0.4-0.4-0.4v-0.4h-0.4c-0.4-0.4-0.8-0.4-0.8-0.4h-0.8h-0.8c-0.4,0-0.8,0-0.8,0.4
	h-0.4v0.4c0,0,0,0.4-0.4,0.4L376.2,338l-6.6,15.8c-0.4,0.8-0.4,1.2,0,2.1c0.4,0.8,0.8,1.2,1.6,1.7
	C371.7,357.9,372.1,357.9,372.5,357.9L372.5,357.9z M382.7,336.7l14.7-35.7l14.7,35.7H382.7z M287.4,303.9l25,41.5v0.4h4.9v-0.4
	l25-41.5v51.5c0,0.8,0.4,1.2,0.8,2.1c0.4,0.4,1.2,0.8,2,0.8c0.8,0,1.2-0.4,2-0.8c0.5-0.6,0.8-1.3,0.8-2.1v-61.5c0-1.2-0.8-2.5-2-2.5
	c-1.2-0.4-2.5,0-3.3,1.2l-27.8,45.7l-27.4-46.1c-0.8-1.2-2-1.7-3.3-1.2c-1.2,0.4-2,1.2-2,2.9v61.5c0,0.8,0.4,1.2,0.8,2.1
	c0.4,0,1.2,0.4,2,0.4c0.8,0,1.2-0.4,2-0.8c0.5-0.6,0.8-1.3,0.8-2.1v-51.1L287.4,303.9L287.4,303.9z"/>
<path class="st1" d="M98.3,367.1V318c0-3.5-1.7-6.7-4.7-8.7l-59.3-39.3c-2.4-1.6-5.6-0.9-7.2,1.5c-0.6,0.9-0.9,1.9-0.9,2.9v92.8"/>
<path class="st1" d="M126.1,367.1V318c0-3.5,1.7-6.7,4.7-8.7l59.3-39.3c2.4-1.6,5.6-0.9,7.2,1.5c0.6,0.9,0.9,1.9,0.9,2.9v92.8"/>
<path class="st2" d="M26.3,359.4L26.3,359.4c3.2,0,5.7,2.6,5.7,5.7v4.2c0,3.2-2.6,5.7-5.7,5.7l0,0c-3.2,0-5.7-2.6-5.7-5.7v-4.2
	C20.6,361.9,23.1,359.4,26.3,359.4z"/>
<path class="st2" d="M126.1,359.4L126.1,359.4c3.2,0,5.7,2.6,5.7,5.7v4.2c0,3.2-2.6,5.7-5.7,5.7l0,0c-3.2,0-5.7-2.6-5.7-5.7v-4.2
	C120.3,361.9,122.9,359.4,126.1,359.4z"/>
<path class="st2" d="M198,359.4L198,359.4c3.2,0,5.7,2.6,5.7,5.7v4.2c0,3.2-2.6,5.7-5.7,5.7l0,0c-3.2,0-5.7-2.6-5.7-5.7v-4.2
	C192.3,361.9,194.9,359.4,198,359.4z"/>
<path class="st2" d="M98.3,359.4L98.3,359.4c3.2,0,5.7,2.6,5.7,5.7v4.2c0,3.2-2.6,5.7-5.7,5.7l0,0c-3.2,0-5.7-2.6-5.7-5.7v-4.2
	C92.5,361.9,95.1,359.4,98.3,359.4z"/>
</svg>
