<?xml version="1.0" encoding="utf-8"?>
<!-- Generator: Adobe Illustrator 23.0.5, SVG Export Plug-In . SVG Version: 6.00 Build 0)  -->
<svg version="1.1" id="svg" xmlns="http://www.w3.org/2000/svg" xmlns:xlink="http://www.w3.org/1999/xlink" x="0px" y="0px"
	 viewBox="0 0 400 341.4" style="enable-background:new 0 0 400 341.4;" xml:space="preserve">
<style type="text/css">
	.st0{fill-rule:evenodd;clip-rule:evenodd;stroke:#000000;stroke-width:6;stroke-miterlimit:10;}
</style>
<path id="path0" class="st0" d="M45.5,27.8c-14,3.1-25.7,13-30.5,26.5c-4.7,13.2-2,28,6.9,38.8c4.5,5.5,10.4,10.4,17.1,12.8
	c8.2,2.9,17.2,2.7,25.8,3.1c0.3,0,2.8-0.1,3,0.2c0.1,0.2-0.4,1.1-0.5,1.3c-0.4,0.9-0.8,1.9-1.2,2.8c-2.1,5.1-4.2,10.1-5.9,15.3
	c-3.3,10.2-5.5,20.8-6.4,31.5c-1.9,22.1,1.8,44.2,9.4,65c1,2.7,2.1,5.4,3.2,8c0.3,0.7,0.6,1.5,0.9,2.2c0.1,0.1,0.4,0.7,0.3,0.8
	c-0.1,0.2-0.7,0.3-0.9,0.4c-3.6,0.8-7.5,0.5-11.2,1c-6.3,0.8-12.4,2.9-17.9,6.2c-9.6,6-16.4,15.8-18.7,26.9
	c-2.2,10.8,0,22.4,6.5,31.3c3.6,4.9,8.3,8.8,13.6,11.7c2.8,1.5,5.7,2.6,8.7,3.6c1.4,0.4,2.9,1.1,4.3,1.3c1.1,0.1,2.4,0,3.5,0
	c2.7,0,5.4,0,8.1,0c8.9,0,17.8,0,26.8,0c11.5,0,23,0,34.5,0c11.6,0,23.2,0,34.8,0c9.4,0,18.8,0,28.2,0c4.7,0,9.3,0,14,0
	c2.4,0,4.7,0,7.1,0c7.8,0,15.5,0,23.3,0c11,0,22.1,0,33.1,0c11.8,0,23.7,0,35.5,0c10.2,0,20.5,0,30.7,0c6.2,0,12.4,0,18.7,0
	c0.8,0,1.8,0.1,2.6-0.1c1.2-0.2,2.4-0.8,3.5-1.2c1.3-0.4,2.6-0.9,3.9-1.4c3.5-1.4,6.8-3.3,9.8-5.7c11.2-8.6,17.3-22.7,15.7-36.7
	c-1.6-14.5-11.8-28.2-25.5-33.5c-8.5-3.3-17.4-2.9-26.3-3.2c-0.5,0-2.9,0.2-3-0.4c-0.1-0.4,0.6-1.5,0.7-1.9c0.5-1.2,1-2.5,1.5-3.7
	c2.2-5.1,4.1-10.3,5.8-15.5c6.3-20.3,8-41.7,4.9-62.7c-1.7-11-4.6-21.9-8.5-32.3c-1-2.8-2.2-5.6-3.3-8.4c-0.3-0.6-0.5-1.2-0.8-1.8
	c0-0.1-0.3-0.4-0.2-0.6c0.2-0.4,1.1-0.4,1.4-0.4c2.4-0.2,4.9-0.1,7.3-0.2c2.2-0.1,4.4-0.4,6.6-0.8c15.3-2.8,28.5-14.3,32.6-29.5
	c3.5-13.1,0-27.6-9-37.7c-4.7-5.3-10.9-9.3-17.7-11.5c-2.5-0.8-5.1-1.4-7.6-2c-0.5-0.1-0.8-0.2-1.3-0.2c-4.7-0.1-9.3,0-14,0
	c-9.4,0-18.9,0-28.3,0c-11.7,0-23.3,0-35,0c-11.4,0-22.8,0-34.3,0c-8.6,0-17.2,0-25.7,0c-4,0-8.1,0-12.1,0c-20.3,0-40.6,0-60.8,0
	c-14,0-28.1,0-42.1,0.1c-8.8,0-17.6,0.1-26.5,0.2c-4.8,0-9.5,0.1-14.3,0.2C48.9,27.5,47.1,27.5,45.5,27.8 M59.2,39.2
	c13,1.6,22.2,13.7,23.2,26.3c1,11.8-5.5,23.6-16.3,28.6c-9,4.2-20,3.2-28.3-2c-9.3-5.7-14.6-16.6-13.3-27.4
	c1.6-13.8,15-26.9,29.3-26C55.6,38.7,57.4,38.9,59.2,39.2 M206.4,38.9c13.5,0.8,26.8,3.5,39.5,8.2c11.9,4.4,23.2,10.4,33.4,18
	c10,7.4,19,16.2,26.6,26c7.5,9.7,13.7,20.4,18.3,31.8c4.7,11.5,7.7,23.7,9.1,36c1.3,12.6,0.8,25.4-1.5,37.8
	c-2.3,12.2-6.4,23.8-11.7,35c-0.5,1.1-1,2.2-1.5,3.3c-0.2,0.4-0.5,1.6-0.9,1.9c-0.3,0.2-1.3,0-1.6,0c-3.7,0-7.3,0-11,0
	c-8.3,0-16.6,0-24.9,0c-12.2,0-24.5,0-36.7-0.2c-0.3,0-2.4,0.2-2.6-0.1c0-0.1,7.4-5.7,8.2-6.4c2.6-2.2,5-4.5,7.2-7
	c4.4-4.9,8.1-10.3,11-16.1c5.6-11.2,8.3-23.8,7.9-36.3c-0.4-12.4-3.8-24.7-9.9-35.6c-6.4-11.4-15.8-20.9-27-27.5
	c-5.6-3.3-11.9-6.2-18.2-8c-5.1-1.4-10.3-1.9-15.6-2.2c-11.2-0.6-22.4-0.6-33.6-0.6c-11.2,0-22.3,0-33.5,0c-9.7,0-19.4,0-29.1,0
	c-8.2,0-16.4,0-24.6,0c-0.4,0-0.9,0-1.3,0c2.3-2.6,4.6-5.3,6.4-8.3c2.5-4.1,4.2-8.7,5.1-13.5c1.7-9.7-0.3-19.8-5.3-28.3
	c-1.8-3-4-5.7-6.1-8.5c4.2,0,8.4,0,12.5,0c8.3,0,16.7,0,25,0c6.1,0,12.2,0,18.3,0c11.9,0,23.8,0,35.7,0.1c10.4,0.1,20.7,0,31.1,0.4
	C205.4,38.8,205.9,38.8,206.4,38.9 M343.5,38.9c12.3,1.6,22.3,11,24.8,23.1c2.5,12.1-3.4,24.7-14,31c-5.8,3.4-12.8,3.8-19.4,3.9
	c-2,0-4,0-6,0c-1.1,0-2.3,0-3.4,0c-0.4,0-1.1,0.1-1.4-0.1c-0.2-0.1-0.4-0.6-0.6-0.9c-0.4-0.5-0.7-1.1-1.1-1.6
	c-0.5-0.7-0.9-1.5-1.4-2.2c-2.2-3.5-4.7-6.8-7.2-10c-5.4-6.8-11.5-13-18.1-18.7c-6.7-5.8-13.8-11-21.3-15.6
	c-5.3-3.2-10.7-5.9-16.2-8.7c-0.5-0.3-1.1-0.5-1.6-0.8c9,0,18.1,0,27.1,0c12.8,0,25.6,0,38.4,0.1c4.8,0,9.6,0.1,14.4,0.2
	C338.8,38.7,341.2,38.6,343.5,38.9 M158.3,109c0,0.3-1.4,1.1-1.6,1.3c-0.8,0.6-1.7,1.1-2.5,1.7c-1.5,1.1-2.9,2.2-4.3,3.4
	c-2.8,2.3-5.3,4.9-7.7,7.6c-4.8,5.5-8.7,11.8-11.6,18.4c-6,13.4-8.2,28.6-6,43.1c2.3,15.6,9.9,29.9,20.8,41.1
	c5.5,5.6,11.8,10.5,18.7,14.2c4.6,2.5,9.5,4.3,14.5,5.8c2.9,0.9,5.7,1.6,8.7,1.9c5.6,0.7,11.4,0.7,17,0.7
	c13.3,0.2,26.5,0.2,39.8,0.2c6.9,0,13.8,0,20.8,0.1c9.8,0,19.5,0.1,29.3,0.1c7.2,0,14.3,0,21.5,0.1c0.4,0,0.7,0,1.1,0
	c-1.9,2.3-3.9,4.6-5.5,7.2c-2.7,4.2-4.6,8.9-5.6,13.7c-2,9.7-0.3,20.1,4.6,28.7c1.9,3.3,4.3,6.1,6.7,9c-3.2,0-6.3,0-9.5,0
	c-7.1,0-14.1-0.1-21.2-0.1c-7.3,0-14.6-0.1-21.8-0.1c-3.9,0-7.9,0-11.8,0c-10.9,0-21.9-0.1-32.8-0.2c-7.6,0-15.2-0.1-22.7-0.2
	c-3.8-0.1-7.6-0.1-11.4-0.4c-4.3-0.3-8.5-1.1-12.6-1.9c-10.2-2.1-20.1-5.4-29.6-9.7c-9-4.2-17.6-9.3-25.5-15.3
	c-7.8-5.9-14.9-12.7-21.2-20.1c-6.2-7.4-11.7-15.4-16.2-23.9c-4.5-8.5-8.1-17.4-10.6-26.7c-2.6-9.4-4.2-19-4.7-28.7
	c-0.5-9.9,0.1-19.9,1.8-29.6c1.8-10.1,4.8-20.1,8.8-29.5c1.5-3.5,3.2-6.9,4.8-10.3c0.2-0.5,0.4-1.4,1-1.6c0.5-0.2,1.4,0,1.9,0
	c6.6,0,13.2,0,19.8,0c5.4,0,10.8,0,16.3,0c10.9,0,21.9,0,32.8,0.1C152.6,108.9,158.3,108.9,158.3,109 M215.9,110.8
	c12.6,3.3,24.1,10.4,32.5,20.4c7.9,9.4,13,21.2,14.6,33.4c1.6,12.4-0.5,25.1-6,36.3c-5.9,12-15.7,22.2-27.5,28.5
	c-10.9,5.9-23.5,8.3-35.9,7.1c-12-1.2-23.7-5.8-33.3-13.1c-9.9-7.5-17.5-17.9-21.5-29.8c-4.6-13.6-4.6-28.7,0.2-42.3
	c4.9-13.8,14.6-25.6,27-33.3c6.4-4,13.5-6.8,20.9-8.3c6.6-1.4,13.4-1,20.1-0.4C209.9,109.7,213,110.1,215.9,110.8 M79.1,255.2
	c6.8,10.2,15.1,19.5,24.4,27.5c9.3,8.1,19.6,14.9,30.6,20.5c2.7,1.4,5.4,2.7,8.1,4.1c-4,0-8,0-11.9,0c-7,0-14,0-20.9,0
	c-5.4,0-10.8,0-16.2,0c-9.4,0-18.7,0-28.1-0.2c-4.2-0.1-8.5-0.2-12.6-1c-2.7-0.5-5.1-1.6-7.5-2.9c-8-4.5-13.6-12.6-14.8-21.7
	c-1.2-9.2,2.3-18.3,8.9-24.7c2.9-2.7,6.1-5,9.9-6.2c4.7-1.5,9.7-1.7,14.5-1.8c3,0,6,0,9,0c0.6,0,1.9-0.2,2.3,0.1
	c0.4,0.3,0.7,1,0.9,1.4c0.5,0.7,0.9,1.4,1.4,2.1C77.9,253.3,78.5,254.3,79.1,255.2 M352.2,249.6c11.6,3,20.6,12.8,22.1,24.8
	c1.5,12.2-5.2,23.8-16.1,29.3c-9.8,5-21.9,3.7-30.7-2.9c-9.3-7-13.2-18.7-10.6-30c3.2-13.4,16.5-23,30.2-22.1
	C348.9,248.9,350.6,249.2,352.2,249.6"/>
</svg>
